<?xml version="1.0" standalone="no"?>
<!DOCTYPE svg PUBLIC "-//W3C//DTD SVG 20010904//EN"
 "http://www.w3.org/TR/2001/REC-SVG-20010904/DTD/svg10.dtd">
<svg version="1.0" xmlns="http://www.w3.org/2000/svg"
 width="54.000000pt" height="54.000000pt" viewBox="0 0 54.000000 54.000000"
 preserveAspectRatio="xMidYMid meet">

<g transform="translate(0.000000,54.000000) scale(0.100000,-0.100000)"
fill="#000000" stroke="none">
<path d="M60 470 c0 -16 5 -30 10 -30 6 0 10 -65 10 -175 0 -168 -1 -175 -20
-175 -15 0 -20 -7 -20 -25 l0 -25 230 0 230 0 0 25 c0 18 -5 25 -20 25 -19 0
-20 7 -20 175 0 110 4 175 10 175 6 0 10 14 10 30 l0 30 -210 0 -210 0 0 -30z
m408 3 c-3 -16 -21 -18 -192 -21 -109 -1 -194 2 -199 7 -25 25 10 31 199 31
181 0 195 -1 192 -17z m-198 -373 l160 0 3 168 3 167 2 -172 2 -173 -170 0
-170 0 2 173 2 172 3 -167 3 -168 160 0z m-10 245 l0 -65 -70 0 -70 0 0 65 0
65 70 0 70 0 0 -65z m160 0 l0 -65 -70 0 -70 0 0 65 0 65 70 0 70 0 0 -65z
m-160 -160 l0 -75 -70 0 -70 0 0 75 0 75 70 0 70 0 0 -75z m160 0 l0 -75 -70
0 -70 0 0 75 0 75 70 0 70 0 0 -75z m70 -125 c0 -6 -80 -10 -220 -10 -140 0
-220 4 -220 10 0 6 80 10 220 10 140 0 220 -4 220 -10z"/>
<path d="M155 379 c-4 -6 -5 -13 -2 -16 7 -7 27 6 27 18 0 12 -17 12 -25 -2z"/>
<path d="M170 355 c-19 -19 -29 -35 -23 -35 11 0 73 56 73 66 0 12 -20 0 -50
-31z"/>
</g>
</svg>
