<?xml version="1.0" standalone="no"?>
<!DOCTYPE svg PUBLIC "-//W3C//DTD SVG 20010904//EN"
 "http://www.w3.org/TR/2001/REC-SVG-20010904/DTD/svg10.dtd">
<svg version="1.0" xmlns="http://www.w3.org/2000/svg"
 width="50.000000pt" height="50.000000pt" viewBox="0 0 50.000000 50.000000"
 preserveAspectRatio="xMidYMid meet">

<g transform="translate(0.000000,50.000000) scale(0.100000,-0.100000)"
fill="#000000" stroke="none">
<path d="M178 438 c-8 -7 -21 -45 -28 -85 -16 -87 -8 -103 51 -103 28 0 39 -4
39 -15 0 -10 -11 -15 -35 -15 -40 0 -78 -31 -69 -55 4 -11 20 -15 55 -15 45 0
49 -2 49 -24 0 -22 -5 -25 -42 -28 -37 -3 -43 -6 -46 -28 -2 -23 -1 -24 11 -7
20 25 154 25 174 0 12 -17 13 -16 11 7 -3 22 -9 25 -45 28 -38 3 -43 6 -43 28
0 22 4 24 49 24 35 0 51 4 55 15 9 24 -29 55 -69 55 -24 0 -35 5 -35 15 0 11
11 15 39 15 59 0 67 16 51 103 -7 40 -17 78 -22 85 -6 7 -35 12 -72 12 -35 0
-69 -6 -78 -12z m146 -31 c3 -13 8 -49 12 -80 l7 -57 -93 0 -93 0 7 57 c13
107 9 103 86 103 62 0 68 -2 74 -23z m24 -224 c3 -10 -21 -13 -97 -13 -93 0
-113 5 -94 24 13 12 186 2 191 -11z"/>
</g>
</svg>
