<?xml version="1.0" standalone="no"?>
<!DOCTYPE svg PUBLIC "-//W3C//DTD SVG 20010904//EN"
 "http://www.w3.org/TR/2001/REC-SVG-20010904/DTD/svg10.dtd">
<svg version="1.0" xmlns="http://www.w3.org/2000/svg"
 width="200.000000pt" height="200.000000pt" viewBox="0 0 200.000000 200.000000"
 preserveAspectRatio="xMidYMid meet">

<g transform="translate(0.000000,200.000000) scale(0.100000,-0.100000)"
fill="#000000" stroke="none">
<path d="M0 1000 l0 -1000 1000 0 1000 0 0 1000 0 1000 -1000 0 -1000 0 0
-1000z m1066 488 c29 -57 31 -98 5 -129 -37 -45 -122 -22 -133 36 -5 25 17 83
54 143 20 33 22 34 35 16 8 -11 25 -40 39 -66z m-192 -69 c13 -28 22 -58 19
-67 -16 -46 -73 -56 -99 -17 -15 23 -14 27 10 80 13 30 29 55 35 55 5 0 21
-23 35 -51z m352 -4 c24 -53 25 -57 10 -80 -27 -42 -81 -32 -99 17 -6 18 39
118 54 118 6 0 22 -25 35 -55z m-129 -220 c51 -59 11 -165 -62 -165 l-34 0 -3
-57 c-3 -54 -5 -58 -28 -58 l-25 0 -3 145 c-1 79 0 151 3 158 4 12 19 14 68 9
50 -5 66 -10 84 -32z m-224 -112 c22 -177 22 -173 -7 -173 -27 0 -31 10 -41
115 -4 33 -9 69 -12 79 -5 18 -7 17 -20 -7 -17 -34 -26 -34 -53 0 l-21 27 6
-54 c4 -30 10 -81 14 -112 4 -32 5 -60 3 -63 -8 -8 -52 -6 -52 3 0 4 -7 62
-15 127 -21 171 -21 175 13 175 16 0 37 -9 47 -20 24 -26 27 -25 47 10 13 22
24 30 46 30 l29 0 16 -137z m403 119 c8 -4 13 -60 15 -159 l4 -153 -27 0 c-21
0 -28 5 -28 19 0 26 -57 35 -65 11 -4 -12 -13 -16 -31 -12 -18 3 -23 9 -19 20
3 9 24 76 47 149 40 125 44 133 68 133 14 0 30 -4 36 -8z m188 -51 c2 -9 8
-50 12 -91 7 -81 11 -79 39 23 13 43 21 57 35 57 10 0 21 -4 24 -9 5 -7 -68
-273 -80 -293 -2 -3 -12 -4 -23 -1 -14 4 -21 22 -31 91 l-14 87 -17 -55 c-10
-30 -18 -63 -18 -72 -1 -12 -9 -18 -24 -18 -41 0 -42 -12 32 237 18 61 24 70
41 66 11 -3 21 -13 24 -22z m-901 -13 c28 -28 72 -185 63 -223 -19 -74 -121
-90 -157 -24 -17 33 -49 155 -49 189 0 70 94 107 143 58z m1136 -54 c2 -2 -1
-31 -6 -64 l-10 -61 42 47 c38 43 43 46 64 34 23 -12 23 -13 -42 -79 -43 -43
-75 -86 -91 -123 -26 -58 -37 -66 -66 -48 -12 8 -11 17 13 65 18 38 31 85 39
150 11 90 12 95 32 89 12 -4 23 -8 25 -10z m-1364 -29 c30 -29 32 -51 5 -60
-14 -5 -26 0 -39 16 -19 23 -47 21 -57 -4 -2 -7 10 -49 29 -93 29 -67 37 -79
58 -79 20 0 24 5 24 30 0 21 7 34 23 43 29 17 32 14 39 -35 11 -81 -81 -130
-141 -74 -30 28 -86 160 -86 201 0 44 39 80 85 80 25 0 44 -8 60 -25z m972
-224 c57 -12 135 -33 175 -47 90 -32 220 -99 243 -124 17 -18 16 -20 -19 -36
-28 -14 -36 -23 -36 -45 0 -58 -7 -59 -74 -14 -72 48 -196 96 -318 122 -117
25 -409 25 -526 0 -122 -26 -246 -74 -318 -122 -67 -45 -74 -44 -74 14 0 22
-8 31 -36 45 -35 16 -36 18 -19 36 26 29 180 105 271 133 79 25 207 52 289 61
95 10 342 -3 442 -23z m-394 -236 c-2 -5 -14 -10 -27 -11 -32 -1 -56 -11 -56
-24 0 -5 7 -10 15 -10 8 0 23 -8 34 -19 18 -18 18 -17 30 14 14 41 48 72 61
59 7 -7 -1 -26 -25 -57 -37 -49 -41 -57 -25 -57 6 0 10 5 10 12 0 19 31 48 52
48 10 0 18 -7 18 -17 0 -15 1 -15 18 0 21 19 67 24 56 6 -5 -8 -1 -8 14 0 32
17 55 14 47 -6 -17 -42 -15 -46 5 -15 15 21 30 32 46 32 29 0 29 -3 7 -37 -17
-26 -17 -27 1 -20 16 6 17 5 6 -8 -14 -17 -30 -11 -30 12 0 14 -4 13 -22 -4
-16 -14 -34 -19 -58 -17 -28 2 -42 -4 -67 -29 -34 -32 -47 -19 -16 15 15 17
15 18 0 18 -10 0 -17 5 -17 11 0 8 -4 8 -12 2 -24 -19 -78 -24 -84 -8 -5 11
-11 12 -24 5 -24 -13 -90 -13 -90 -1 0 5 14 9 30 9 48 -2 61 19 21 33 -41 14
-38 38 9 62 36 18 77 19 73 2z m-170 -66 c-17 -17 -37 -1 -22 17 8 10 15 12
23 4 7 -7 7 -13 -1 -21z m539 -1 c-15 -15 -26 -4 -18 18 5 13 9 15 18 6 9 -9
9 -15 0 -24z"/>
<path d="M817 1411 c-9 -16 -17 -38 -17 -50 0 -39 63 -49 75 -11 5 17 -23 90
-35 90 -3 0 -13 -13 -23 -29z"/>
<path d="M1167 1404 c-24 -50 -14 -76 26 -72 22 2 33 9 36 23 3 19 -26 85 -39
85 -3 0 -14 -16 -23 -36z"/>
<path d="M1000 1125 c0 -38 3 -45 19 -45 11 0 27 7 35 16 31 31 13 74 -31 74
-21 0 -23 -5 -23 -45z"/>
<path d="M1217 1050 c-21 -74 -21 -70 3 -70 18 0 20 7 20 65 0 36 -2 65 -3 65
-2 0 -11 -27 -20 -60z"/>
<path d="M480 1096 c-9 -12 -7 -32 12 -97 25 -90 49 -118 73 -86 11 16 10 30
-7 95 -12 42 -25 83 -31 90 -13 16 -32 15 -47 -2z"/>
<path d="M927 813 c-4 -3 -7 -19 -7 -35 0 -21 5 -28 20 -28 11 0 20 7 20 15 0
8 -5 15 -11 15 -5 0 -7 -4 -4 -10 3 -5 1 -10 -4 -10 -6 0 -11 11 -11 25 0 19
4 23 17 18 11 -4 14 -3 9 5 -8 13 -19 15 -29 5z"/>
<path d="M992 788 c-2 -34 1 -38 21 -37 15 1 17 3 5 6 -10 2 -18 17 -21 36 -4
31 -4 31 -5 -5z"/>
<path d="M1058 785 c-2 -19 0 -35 4 -35 4 0 8 16 8 35 0 19 -2 35 -4 35 -2 0
-6 -16 -8 -35z"/>
<path d="M1101 778 c1 -24 3 -35 6 -25 5 18 5 18 19 0 12 -16 13 -14 13 22 0
31 -2 36 -9 20 -7 -16 -9 -17 -9 -3 -1 9 -5 20 -11 23 -6 4 -10 -10 -9 -37z"/>
<path d="M797 803 c-4 -3 -3 -11 2 -17 5 -6 11 -22 13 -36 3 -18 5 -13 9 18 4
39 -6 54 -24 35z"/>
<path d="M858 776 c-3 -28 -1 -34 14 -33 18 1 23 22 12 51 -10 26 -22 18 -26
-18z"/>
<path d="M1177 803 c-4 -3 -7 -19 -7 -35 0 -20 5 -28 18 -27 10 0 12 3 5 6
-19 7 -16 23 5 24 10 0 12 3 5 6 -7 2 -13 9 -13 14 0 6 5 7 10 4 6 -3 10 -1
10 4 0 12 -23 15 -33 4z"/>
<path d="M1290 778 c0 -7 -3 -24 -6 -38 -6 -24 -6 -25 9 -5 16 20 16 20 17 -5
0 -20 2 -22 10 -10 5 8 9 26 9 40 0 14 -3 19 -6 13 -2 -7 -9 -13 -15 -13 -6 0
-8 7 -4 15 3 8 1 15 -4 15 -6 0 -10 -6 -10 -12z"/>
<path d="M671 763 c0 -10 4 -27 9 -38 7 -17 9 -17 9 -2 1 19 21 24 21 5 0 -6
2 -9 5 -6 4 3 3 17 -1 32 -7 30 -44 37 -43 9z"/>
<path d="M1361 748 c-15 -43 -14 -48 12 -48 18 0 19 2 7 11 -11 8 -12 12 -2
16 6 2 9 9 6 15 -4 6 -1 14 6 18 9 5 8 9 -3 13 -11 4 -19 -4 -26 -25z"/>
<path d="M620 766 c0 -3 4 -16 10 -30 6 -17 6 -26 0 -26 -5 0 -12 11 -16 25
-3 14 -10 25 -15 25 -4 0 -3 -13 2 -30 7 -19 18 -30 30 -30 20 0 23 10 13 48
-5 18 -24 32 -24 18z"/>
<path d="M1425 727 c-7 -17 -11 -34 -8 -37 3 -3 8 1 10 8 3 6 9 12 15 12 6 0
8 -7 4 -15 -3 -8 -1 -15 4 -15 6 0 10 6 10 13 0 6 3 22 6 33 4 14 0 23 -11 28
-12 4 -20 -3 -30 -27z"/>
<path d="M530 722 c0 -10 6 -27 14 -38 20 -26 41 -6 32 30 -8 31 -46 37 -46 8z
m34 -8 c9 -22 -3 -32 -14 -14 -12 19 -12 30 -1 30 5 0 12 -7 15 -16z"/>
<path d="M1495 700 c-14 -28 -14 -31 0 -36 9 -4 19 -4 22 0 4 3 1 6 -5 6 -7 0
-12 5 -12 10 0 6 8 10 18 10 14 0 15 2 2 10 -13 9 -7 14 13 11 4 0 7 4 7 9 0
22 -30 8 -45 -20z"/>
<path d="M491 713 c-1 -8 -8 -10 -18 -6 -14 5 -12 0 7 -24 14 -17 26 -30 27
-29 1 1 -2 17 -7 36 -4 19 -8 30 -9 23z"/>
<path d="M956 514 c-10 -25 1 -29 14 -5 6 12 7 21 1 21 -5 0 -12 -7 -15 -16z"/>
<path d="M1019 513 c-13 -16 -12 -17 4 -4 16 13 21 21 13 21 -2 0 -10 -8 -17
-17z"/>
<path d="M1089 513 c-13 -16 -12 -17 4 -4 16 13 21 21 13 21 -2 0 -10 -8 -17
-17z"/>
</g>
</svg>
