<?xml version="1.0" standalone="no"?>
<!DOCTYPE svg PUBLIC "-//W3C//DTD SVG 20010904//EN"
 "http://www.w3.org/TR/2001/REC-SVG-20010904/DTD/svg10.dtd">
<svg version="1.0" xmlns="http://www.w3.org/2000/svg"
 width="50.000000pt" height="50.000000pt" viewBox="0 0 50.000000 50.000000"
 preserveAspectRatio="xMidYMid meet">

<g transform="translate(0.000000,50.000000) scale(0.100000,-0.100000)"
fill="#000000" stroke="none">
<path d="M60 245 l0 -195 195 0 195 0 0 195 0 195 -195 0 -195 0 0 -195z m118
58 l3 -113 -51 0 -50 0 0 116 0 115 48 -3 47 -3 3 -112z m250 70 l-3 -48 -112
-3 -113 -3 0 51 0 50 116 0 115 0 -3 -47z m-118 -128 l0 -55 -55 0 -55 0 0 55
0 55 55 0 55 0 0 -55z m120 -60 l0 -115 -45 0 -45 0 0 115 0 115 45 0 45 0 0
-115z m-120 -70 l0 -45 -115 0 -115 0 0 45 0 45 115 0 115 0 0 -45z"/>
</g>
</svg>
